<svg width="97" height="98" viewBox="0 0 97 98" fill="none" xmlns="http://www.w3.org/2000/svg">
<path d="M78.3062 21.9861C69.4215 5.27082 53.6097 3.91553 49.0921 3.91553H47.285C42.6168 3.91553 26.9556 5.27082 17.9203 21.9861V22.1367C17.6191 22.8896 9.78848 39.4543 20.1791 56.1696C20.3297 56.4708 25.9015 64.9038 26.5038 65.9579C26.805 66.4096 27.2568 68.0661 27.4074 70.4755V81.7696C27.5579 84.932 29.8168 87.3414 32.8285 87.7932C34.1838 87.9438 35.6897 88.0944 37.4968 88.2449H37.6474C39.4544 91.7085 43.6709 93.9673 48.1885 93.9673C50.4474 93.9673 52.5556 93.3649 54.3627 92.4614C56.1697 91.4073 57.525 90.052 58.5791 88.2449H58.8803C60.3862 88.2449 61.4403 88.0944 62.4944 88.0944C66.5603 87.6426 69.1203 84.7814 68.8191 80.5649C68.8191 79.9626 68.6685 79.3602 68.6685 78.6073C68.6685 78.0049 68.5179 77.4026 68.5179 77.1014C68.5179 76.8002 68.5179 75.7461 68.6685 74.5414C68.6685 73.0355 68.8191 70.4755 68.8191 70.0238C68.9697 68.5179 69.2709 66.8614 69.7227 65.9579C70.325 64.9038 75.8968 56.4708 76.0474 56.1696C86.2874 39.6049 78.6074 22.8896 78.1556 22.1367L78.3062 21.9861ZM73.0356 54.212C72.885 54.5132 67.3132 62.9461 66.7109 63.8496C65.6568 65.3555 65.3556 67.6143 65.205 69.572C65.205 70.1743 65.0544 71.8308 65.0544 74.3908V76.8002C65.0544 77.5532 65.0544 78.3061 65.205 79.0591C65.205 79.5108 65.3556 80.1132 65.3556 80.5649C65.5062 82.6732 64.4521 83.8779 62.3438 84.1791C61.4403 84.3296 60.3862 84.3296 59.0309 84.3296C56.4709 84.3296 55.7179 85.8355 55.4168 86.2873C54.8144 87.3414 53.9109 88.3955 52.7062 88.9979C51.5015 89.7508 49.9956 90.052 48.3391 90.052C45.0262 90.052 42.165 88.5461 40.9603 86.1367C40.3579 84.932 39.3038 84.3296 37.7979 84.3296C35.9909 84.1791 34.6356 84.1791 33.4309 84.0285C32.2262 83.8779 31.3226 82.8238 31.1721 81.6191V70.4755C31.0215 68.6685 30.7203 65.5061 29.6662 64.0002C29.0638 63.0967 23.6426 54.6638 23.3415 54.212C14.1555 39.3038 21.0826 24.3955 21.3838 23.7932C29.365 8.73435 43.2191 7.68023 47.285 7.68023H49.0921C53.1579 7.68023 67.1627 8.88494 74.9932 23.6426V23.7932C75.445 24.5461 82.0709 39.3038 73.0356 54.212Z" fill="#FAFAFA"/>
<path d="M59.9344 67.3135H35.6897C35.2379 67.3135 34.9368 67.6146 34.9368 68.0664C34.9368 68.5182 35.2379 68.8193 35.6897 68.8193H59.9344C60.3862 68.8193 60.6874 68.5182 60.6874 68.0664C60.6874 67.6146 60.3862 67.3135 59.9344 67.3135ZM36.7438 29.6664C37.1956 29.5158 37.3462 29.064 37.1956 28.7629C37.045 28.3111 37.1956 27.8593 37.3462 27.4076C37.4968 26.9558 37.9485 26.8052 38.2497 26.6546C44.725 24.8476 51.3509 24.8476 57.9768 26.6546C58.4285 26.8052 58.7297 27.1064 58.8803 27.4076C59.0309 27.8593 59.1815 28.3111 59.0309 28.7629L52.8568 49.9958C52.7062 50.4476 53.0074 50.7488 53.3085 50.8993H53.4591C53.7603 50.8993 54.0615 50.7487 54.2121 50.297L60.3862 29.064C60.6874 28.3111 60.5368 27.4076 60.085 26.6546C59.6332 25.9017 59.0309 25.4499 58.2779 25.1488C51.5015 23.3417 44.5744 23.3417 37.7979 25.1488C37.045 25.2993 36.2921 25.9017 35.9909 26.6546C35.5391 27.4076 35.3885 28.3111 35.6897 29.064C35.8403 29.6664 36.2921 29.817 36.7438 29.6664ZM38.2497 34.937C37.7979 35.0876 37.6474 35.3888 37.6474 35.8405L41.8638 50.4476C42.0144 50.7488 42.3156 51.0499 42.6168 51.0499H42.7674C43.2191 50.8993 43.3697 50.4476 43.2191 50.1464L39.1532 35.3888C39.0027 35.0876 38.5509 34.7864 38.2497 34.937Z" fill="#FAFAFA"/>
</svg>
