<svg width="97" height="98" viewBox="0 0 97 98" fill="none" xmlns="http://www.w3.org/2000/svg">
<g clip-path="url(#clip0_56_378)">
<path d="M96.0273 32.813L82.7598 10.8763C82.3495 10.1958 81.648 9.78949 80.8824 9.78949H48.1888C46.9609 9.78949 45.9625 10.8434 45.9625 12.1379C45.9625 13.4323 46.9609 14.4862 48.1888 14.4862H79.6612L91.344 33.8025L68.4226 59.6703L22.414 10.4895C21.9976 10.0426 21.4408 9.79298 20.8461 9.78809C20.7804 9.78949 20.7155 9.80348 20.6505 9.81046C20.5815 9.80348 20.5158 9.78878 20.4457 9.78878H14.1693C13.3731 9.78878 12.6332 10.2413 12.2388 10.9686L0.29805 32.9067C-0.193209 33.8089 -0.0685699 34.9256 0.608319 35.6866L46.7534 87.3505C47.1626 87.8065 47.7333 88.073 48.326 88.0863C48.3804 88.0911 48.4341 88.094 48.4878 88.094C49.036 88.094 49.5658 87.8318 49.9994 87.3422L95.7765 35.6796C96.4707 34.8957 96.5734 33.7172 96.0273 32.813ZM19.898 14.4862L65.3809 63.1046L48.3671 82.3055L4.98324 33.734L15.4594 14.4862H19.898Z" fill="#171717"/>
</g>
<defs>
<clipPath id="clip0_56_378">
<rect width="96.3765" height="97.8824" fill="white"/>
</clipPath>
</defs>
</svg>
