<svg width="97" height="98" viewBox="0 0 97 98" fill="none" xmlns="http://www.w3.org/2000/svg">
<mask id="mask0_2045_147" style="mask-type:luminance" maskUnits="userSpaceOnUse" x="0" y="0" width="97" height="98">
<path d="M96.3765 0.75293H0V97.1294H96.3765V0.75293Z" fill="white"/>
</mask>
<g mask="url(#mask0_2045_147)">
<path d="M81.1562 33.7209C81.1562 15.5131 66.396 0.75293 48.1882 0.75293C29.9806 0.75293 15.2203 15.5131 15.2203 33.7209C10.5132 34.307 6.0625 37.3841 6.0625 44.5271V61.7437C6.0625 69.8026 11.7037 72.7331 17.0519 72.7331H22.3634C22.8491 72.7331 23.315 72.5401 23.6585 72.1967C24.002 71.8532 24.1949 71.3872 24.1949 70.9014V35.4426C24.1949 34.9568 24.002 34.491 23.6585 34.1475C23.315 33.804 22.8491 33.611 22.3634 33.611H18.8835C18.8835 17.4265 32.0038 4.30615 48.1882 4.30615C64.3729 4.30615 77.4932 17.4265 77.4932 33.611H74.0132C73.5274 33.611 73.0616 33.804 72.7182 34.1475C72.3747 34.491 72.1816 34.9568 72.1816 35.4426V70.8466C72.1816 71.3323 72.3747 71.7982 72.7182 72.1417C73.0616 72.4852 73.5274 72.6781 74.0132 72.6781H77.4932C76.9804 85.2609 70.9362 88.2098 58.8663 88.7409V87.5137C58.8663 85.4906 57.2264 83.8507 55.2031 83.8507H43.6826C41.6595 83.8507 40.0196 85.4906 40.0196 87.5137V93.4663C40.0196 95.4895 41.6595 97.1294 43.6826 97.1294H55.2398C57.263 97.1294 58.9029 95.4895 58.9029 93.4663V92.4039C70.5149 91.8728 80.5519 89.4735 81.1562 72.5682C85.8635 71.9821 90.3141 68.9051 90.3141 61.7621V44.5455C90.3141 37.3657 85.8817 34.307 81.1562 33.7209ZM20.5318 37.1459V69.015H16.9603C14.2496 69.015 9.63403 68.0626 9.63403 61.6888V44.4722C9.63403 38.1533 14.1946 37.1459 16.9603 37.1459H20.5318ZM55.2398 90.7006V93.4846H43.6826V87.5321H55.2398V90.7006ZM86.651 61.7437C86.651 68.0626 82.0903 69.07 79.3248 69.07H75.8448V37.2742H79.4163C82.1271 37.2742 86.7426 38.2265 86.7426 44.6003L86.651 61.7437Z" fill="#FAFAFA" fill-opacity="0.8"/>
</g>
</svg>
