<svg width="230" height="73" viewBox="0 0 230 73" fill="none" xmlns="http://www.w3.org/2000/svg">
<path d="M65.5484 8.84624C68.4024 8.84624 71.2525 8.81604 74.1027 8.84624C77.6891 8.89909 78.278 9.97877 76.4433 13.1989C71.1581 22.4856 65.8592 31.761 60.5464 41.0252C56.8367 47.5132 53.1219 54.0027 49.4022 60.4932C46.8805 64.8687 44.906 64.9064 42.4259 60.6027C39.8173 56.0727 37.3446 51.4746 34.6643 47.0123C33.8186 45.5967 33.8036 44.6001 34.6416 43.1543C40.8379 32.4708 46.9634 21.7496 53.0188 10.9905C53.8796 9.48046 54.8345 8.72543 56.6392 8.81227C59.6025 8.94061 62.5772 8.84624 65.5484 8.84624Z" fill="#D0D0D0"/>
<path d="M13.2168 63.8917C10.3666 63.8917 7.5126 63.9633 4.66619 63.869C1.18933 63.7558 0.0341485 61.9814 1.69896 59.0294C7.6007 48.6025 13.5716 38.2161 19.6118 27.8698C21.0351 25.4236 23.0509 25.3781 24.5383 27.8471C27.664 33.0228 30.5444 38.3494 33.5985 43.5665C34.4214 44.9671 33.9005 46.0355 33.2436 47.1944C30.5068 52.0531 27.7206 56.8814 25.0668 61.7852C24.1419 63.4952 22.9112 64.0275 21.0425 63.9293C18.4453 63.786 15.8254 63.8917 13.2168 63.8917Z" fill="#D0D0D0"/>
<path d="M93.1274 54.5593V14.8652H107.7C110.506 14.8652 112.832 15.327 114.679 16.2505C116.526 17.1741 117.903 18.4261 118.809 20.0069C119.732 21.5698 120.194 23.3279 120.194 25.2816C120.194 26.9333 119.883 28.3275 119.262 29.4642C118.658 30.6008 117.85 31.5065 116.837 32.1814C115.825 32.8563 114.706 33.3535 113.481 33.6732V34.0462C114.813 34.1173 116.109 34.5435 117.37 35.3249C118.631 36.1064 119.67 37.2165 120.487 38.6551C121.322 40.0758 121.739 41.8164 121.739 43.8766C121.739 45.9013 121.26 47.7215 120.301 49.3378C119.359 50.9362 117.903 52.2061 115.932 53.1473C113.96 54.0886 111.429 54.5593 108.339 54.5593H93.1274ZM99.1215 49.4443H107.753C110.63 49.4443 112.69 48.8849 113.934 47.7659C115.177 46.6471 115.798 45.2529 115.798 43.5834C115.798 42.3225 115.479 41.177 114.839 40.1469C114.218 39.099 113.321 38.2642 112.149 37.6426C110.977 37.021 109.591 36.7102 107.993 36.7102H99.1215V49.4443ZM99.1215 32.0483H107.167C108.499 32.0483 109.707 31.7908 110.79 31.2757C111.873 30.7607 112.726 30.0325 113.347 29.0912C113.987 28.1322 114.306 27.0221 114.306 25.761C114.306 24.1272 113.729 22.7596 112.575 21.6585C111.438 20.5395 109.689 19.9801 107.327 19.9801H99.1215V32.0483ZM124.471 54.5593V24.7753H130.039V29.544H130.359C130.909 27.9456 131.869 26.6847 133.236 25.761C134.621 24.8199 136.184 24.3492 137.925 24.3492C138.28 24.3492 138.697 24.3669 139.177 24.4025C139.674 24.4202 140.074 24.4469 140.376 24.4824V30.0236C140.145 29.9525 139.727 29.8815 139.123 29.8104C138.538 29.7393 137.942 29.7039 137.339 29.7039C135.971 29.7039 134.746 29.9968 133.662 30.583C132.597 31.1513 131.753 31.9417 131.131 32.954C130.528 33.9486 130.226 35.1031 130.226 36.4172V54.5593H124.471ZM141.536 54.5593V24.7753H147.29V54.5593H141.536ZM144.44 20.1933C143.427 20.1933 142.566 19.8559 141.856 19.181C141.145 18.5061 140.79 17.698 140.79 16.7567C140.79 15.7976 141.145 14.9807 141.856 14.3058C142.566 13.6309 143.427 13.2935 144.44 13.2935C145.435 13.2935 146.287 13.6309 146.997 14.3058C147.726 14.9807 148.09 15.7976 148.09 16.7567C148.09 17.698 147.726 18.5061 146.997 19.181C146.287 19.8559 145.435 20.1933 144.44 20.1933ZM162.277 55.1454C159.862 55.1454 157.713 54.5327 155.83 53.3071C153.948 52.0639 152.474 50.2967 151.408 48.0058C150.342 45.697 149.809 42.9441 149.809 39.7473C149.809 36.5149 150.351 33.7533 151.435 31.4621C152.518 29.171 154.001 27.4216 155.884 26.2141C157.766 25.0063 159.897 24.4025 162.277 24.4025C164.142 24.4025 165.634 24.7133 166.753 25.3349C167.889 25.9387 168.768 26.6491 169.39 27.466C170.03 28.2831 170.518 29.0024 170.855 29.624H171.202V14.8652H176.956V54.5593H171.335V49.9239H170.855C170.518 50.5455 170.021 51.2648 169.364 52.0817C168.706 52.8987 167.81 53.6179 166.673 54.2396C165.554 54.8433 164.089 55.1454 162.277 55.1454ZM163.529 50.2169C165.199 50.2169 166.611 49.773 167.765 48.8849C168.919 47.9969 169.79 46.7626 170.376 45.182C170.98 43.6012 171.282 41.772 171.282 39.694C171.282 37.6161 170.989 35.8045 170.403 34.2594C169.816 32.6964 168.946 31.4889 167.792 30.6363C166.637 29.7661 165.216 29.3309 163.529 29.3309C161.789 29.3309 160.341 29.7839 159.187 30.6896C158.032 31.5953 157.162 32.8298 156.576 34.3925C155.99 35.9555 155.697 37.7226 155.697 39.694C155.697 41.6831 155.99 43.4768 156.576 45.0754C157.162 46.656 158.032 47.9081 159.187 48.8316C160.359 49.7551 161.807 50.2169 163.529 50.2169ZM193.302 66.3343C189.75 66.3343 186.951 65.6683 184.909 64.3363C182.867 63.0043 181.455 61.4236 180.674 59.5944L185.629 57.5429C185.984 58.1113 186.455 58.7152 187.04 59.3545C187.644 59.9939 188.453 60.5355 189.465 60.9796C190.478 61.4236 191.783 61.6456 193.382 61.6456C195.566 61.6456 197.378 61.1128 198.816 60.0472C200.255 58.9993 200.973 57.3122 200.973 54.9856V49.1514H200.575C200.255 49.773 199.765 50.4744 199.109 51.2559C198.452 52.0195 197.556 52.6855 196.419 53.2539C195.283 53.8222 193.798 54.1064 191.969 54.1064C189.625 54.1064 187.511 53.5557 185.629 52.4547C183.765 51.3357 182.272 49.7019 181.153 47.5529C180.052 45.3862 179.502 42.7221 179.502 39.5607C179.502 36.3994 180.043 33.6911 181.127 31.4356C182.228 29.1623 183.72 27.4216 185.602 26.2141C187.484 25.0063 189.625 24.4025 192.023 24.4025C193.869 24.4025 195.361 24.7133 196.497 25.3349C197.652 25.9387 198.549 26.6491 199.189 27.466C199.829 28.2831 200.326 29.0024 200.68 29.624H201.108V24.7753H206.727V55.2253C206.727 57.7828 206.133 59.8784 204.943 61.5123C203.772 63.1464 202.173 64.3539 200.147 65.1354C198.123 65.9347 195.841 66.3343 193.302 66.3343ZM193.247 49.2845C195.752 49.2845 197.67 48.4232 199.002 46.7004C200.353 44.9599 201.028 42.5533 201.028 39.4809C201.028 37.474 200.735 35.7158 200.147 34.2061C199.562 32.6788 198.692 31.4889 197.538 30.6363C196.383 29.7661 194.953 29.3309 193.247 29.3309C191.507 29.3309 190.052 29.7839 188.879 30.6896C187.724 31.5776 186.855 32.7941 186.267 34.3392C185.682 35.8667 185.389 37.5806 185.389 39.4809C185.389 41.4167 185.682 43.1306 186.267 44.6224C186.855 46.0966 187.733 47.2421 188.906 48.0591C190.096 48.876 191.543 49.2845 193.247 49.2845ZM210.632 54.5593V24.7753H216.201V29.544H216.521C217.07 27.9456 218.03 26.6847 219.398 25.761C220.782 24.8199 222.346 24.3492 224.086 24.3492C224.441 24.3492 224.859 24.3669 225.337 24.4025C225.836 24.4202 226.234 24.4469 226.536 24.4824V30.0236C226.307 29.9525 225.888 29.8815 225.285 29.8104C224.699 29.7393 224.104 29.7039 223.501 29.7039C222.133 29.7039 220.907 29.9968 219.823 30.583C218.758 31.1513 217.914 31.9417 217.292 32.954C216.688 33.9486 216.386 35.1031 216.386 36.4172V54.5593H210.632Z" fill="#D0D0D0"/>
</svg>
