<svg width="218" height="65" viewBox="0 0 218 65" fill="none" xmlns="http://www.w3.org/2000/svg">
<path d="M-4.73233 6.0371C6.90812 6.62903 17.0121 15.266 19.3685 26.7429C21.1373 35.3615 18.9561 42.9736 13.2579 49.6391C12.5325 50.4844 12.0856 50.5259 11.2934 49.6989C8.93484 47.2415 6.51184 44.8346 4.05895 42.4624C3.35413 41.7828 3.3289 41.359 3.9553 40.5829C9.84921 33.314 6.91262 22.8483 -1.89473 19.6881C-2.86728 19.3325 -3.88722 19.1238 -4.92115 19.0687C-6.01984 19.0203 -6.24321 18.5573 -6.22939 17.5716C-6.18343 14.1951 -6.21332 10.8186 -6.21107 7.43745C-6.20866 5.97493 -6.19034 5.9634 -4.73233 6.0371Z" fill="#D0D0D0"/>
<path d="M48.4567 48.68C45.4436 48.68 42.7444 47.9581 40.359 46.5142C37.9736 45.0705 36.0983 43.0069 34.733 40.3234C33.3677 37.6241 32.6851 34.4148 32.6851 30.6957C32.6851 26.945 33.3677 23.7278 34.733 21.0443C36.114 18.3451 37.9894 16.2737 40.359 14.8298C42.7444 13.3861 45.4436 12.6642 48.4567 12.6642C50.3084 12.6642 52.0425 12.931 53.659 13.4645C55.291 13.9981 56.7505 14.7749 58.0374 15.795C59.3241 16.8151 60.3834 18.0626 61.2152 19.5378C62.0625 21.013 62.6275 22.6842 62.91 24.5517H57.59C57.3861 23.4061 57.0015 22.4017 56.4367 21.5386C55.8874 20.6598 55.2047 19.9223 54.3887 19.326C53.5883 18.7139 52.686 18.2588 51.6816 17.9607C50.693 17.6467 49.6416 17.4898 48.5273 17.4898C46.5186 17.4898 44.706 17.9999 43.0896 19.0198C41.4889 20.0242 40.2256 21.5152 39.2997 23.4924C38.3895 25.454 37.9344 27.8552 37.9344 30.6957C37.9344 33.5517 38.3974 35.9606 39.3233 37.9222C40.2491 39.8683 41.5125 41.3433 43.1132 42.3477C44.7139 43.352 46.5107 43.8542 48.5038 43.8542C49.6179 43.8542 50.6694 43.7053 51.658 43.407C52.6468 43.1089 53.5491 42.6617 54.3651 42.0653C55.1811 41.469 55.8638 40.747 56.413 39.8996C56.978 39.0365 57.3703 38.04 57.59 36.9102H62.91C62.6433 38.652 62.1019 40.2448 61.2859 41.6887C60.4697 43.1168 59.4261 44.3564 58.155 45.4078C56.8839 46.4437 55.4323 47.2519 53.8001 47.8325C52.168 48.3975 50.3869 48.68 48.4567 48.68ZM76.4585 48.7505C73.9946 48.7505 71.837 48.1857 69.9851 47.0556C68.1491 45.9258 66.721 44.3408 65.7009 42.3006C64.6965 40.2605 64.1943 37.8909 64.1943 35.1917C64.1943 32.4611 64.6965 30.0757 65.7009 28.0356C66.721 25.9798 68.1491 24.387 69.9851 23.2571C71.837 22.1271 73.9946 21.5622 76.4585 21.5622C78.938 21.5622 81.0959 22.1271 82.932 23.2571C84.768 24.387 86.1961 25.9798 87.2162 28.0356C88.2363 30.0757 88.7462 32.4611 88.7462 35.1917C88.7462 37.8909 88.2363 40.2605 87.2162 42.3006C86.1961 44.3408 84.768 45.9258 82.932 47.0556C81.0959 48.1857 78.938 48.7505 76.4585 48.7505ZM76.4585 44.4427C78.0749 44.4427 79.4089 44.0191 80.4603 43.1716C81.5118 42.3242 82.2886 41.2021 82.7907 39.8054C83.3085 38.3931 83.5676 36.8552 83.5676 35.1917C83.5676 33.4968 83.3085 31.9432 82.7907 30.5308C82.2886 29.1184 81.5118 27.9885 80.4603 27.141C79.4089 26.2937 78.0749 25.8699 76.4585 25.8699C74.8579 25.8699 73.5318 26.2937 72.4804 27.141C71.4445 27.9885 70.6677 29.1184 70.15 30.5308C69.632 31.9432 69.3731 33.4968 69.3731 35.1917C69.3731 36.8552 69.632 38.3931 70.15 39.8054C70.6677 41.2021 71.4445 42.3242 72.4804 43.1716C73.5318 44.0191 74.8579 44.4427 76.4585 44.4427ZM96.0803 32.6023V48.2091H90.9956V21.8917H95.939V26.2231H96.2921C96.8884 24.795 97.8222 23.6651 99.0934 22.8334C100.364 21.9858 101.997 21.5622 103.99 21.5622C105.779 21.5622 107.34 21.9388 108.674 22.6921C110.024 23.4297 111.067 24.5361 111.805 26.0112C112.558 27.4864 112.935 29.3146 112.935 31.4959V48.2091H107.85V32.108C107.85 30.2091 107.348 28.7183 106.344 27.6355C105.339 26.537 103.974 25.9877 102.248 25.9877C101.071 25.9877 100.011 26.2545 99.0699 26.788C98.144 27.3059 97.4142 28.0514 96.8806 29.0242C96.347 29.9973 96.0803 31.19 96.0803 32.6023ZM137.9 21.8917L128.39 48.2091H122.882L113.348 21.8917H118.833L125.518 42.183H125.801L132.438 21.8917H137.9ZM149.66 48.7505C147.086 48.7505 144.857 48.1934 142.973 47.0793C141.092 45.965 139.639 44.3958 138.619 42.3713C137.614 40.3312 137.113 37.9537 137.113 35.2387C137.113 32.5395 137.608 30.162 138.596 28.1062C139.6 26.0504 141.005 24.4497 142.81 23.3042C144.63 22.1428 146.764 21.5622 149.212 21.5622C150.703 21.5622 152.146 21.8054 153.544 22.292C154.941 22.7784 156.196 23.5473 157.309 24.5988C158.425 25.6502 159.304 27.0155 159.946 28.6946C160.605 30.3739 160.935 32.3982 160.935 34.7679V36.604H140.009V32.767H158.299L155.921 34.0382C155.921 32.4219 155.67 30.9937 155.167 29.754C154.666 28.5142 153.912 27.5492 152.908 26.8587C151.92 26.1524 150.687 25.7994 149.212 25.7994C147.737 25.7994 146.473 26.1524 145.423 26.8587C144.386 27.5648 143.594 28.4986 143.044 29.6598C142.496 30.8212 142.221 32.0923 142.221 33.4733V36.0863C142.221 37.8909 142.535 39.4209 143.163 40.6764C143.79 41.932 144.661 42.8892 145.776 43.5483C146.906 44.2074 148.215 44.5369 149.707 44.5369C150.679 44.5369 151.558 44.3958 152.344 44.1133C153.144 43.8308 153.833 43.407 154.415 42.8421C154.995 42.2771 155.434 41.5787 155.733 40.747L160.581 41.665C160.189 43.0774 159.5 44.3172 158.51 45.3844C157.521 46.4514 156.274 47.2832 154.767 47.8795C153.277 48.4601 151.574 48.7505 149.66 48.7505ZM163.067 48.2091V21.8917H167.986V26.1053H168.269C168.756 24.693 169.603 23.5788 170.811 22.7627C172.036 21.931 173.416 21.5152 174.954 21.5152C175.269 21.5152 175.637 21.5307 176.061 21.5622C176.5 21.5778 176.853 21.6014 177.12 21.6328V26.5291C176.916 26.4663 176.546 26.4036 176.013 26.3407C175.495 26.2779 174.97 26.2466 174.436 26.2466C173.228 26.2466 172.145 26.5055 171.187 27.0234C170.247 27.5256 169.501 28.224 168.952 29.1184C168.418 29.9973 168.152 31.0174 168.152 32.1786V48.2091H163.067ZM178.145 48.2091V21.8917H183.064V26.1053H183.347C183.834 24.693 184.681 23.5788 185.889 22.7627C187.114 21.931 188.494 21.5152 190.032 21.5152C190.347 21.5152 190.715 21.5307 191.139 21.5622C191.578 21.5778 191.932 21.6014 192.198 21.6328V26.5291C191.994 26.4663 191.626 26.4036 191.093 26.3407C190.574 26.2779 190.048 26.2466 189.515 26.2466C188.306 26.2466 187.223 26.5055 186.267 27.0234C185.325 27.5256 184.58 28.224 184.03 29.1184C183.497 29.9973 183.23 31.0174 183.23 32.1786V48.2091H178.145ZM200.616 48.7741C198.953 48.7741 197.445 48.468 196.095 47.8561C194.745 47.2282 193.678 46.318 192.894 45.1255C192.11 43.9328 191.718 42.4811 191.718 40.7706C191.718 39.2798 191.999 38.0635 192.565 37.122C193.145 36.1647 193.923 35.4035 194.895 34.8386C195.869 34.2736 196.952 33.85 198.144 33.5675C199.337 33.285 200.561 33.0653 201.816 32.9083C203.401 32.7357 204.68 32.5866 205.654 32.4611C206.626 32.3356 207.331 32.1394 207.772 31.8726C208.226 31.5901 208.455 31.1429 208.455 30.5308V30.4131C208.455 28.9222 208.03 27.7689 207.183 26.9528C206.351 26.1367 205.112 25.7287 203.463 25.7287C201.753 25.7287 200.396 26.1053 199.391 26.8587C198.403 27.5963 197.72 28.4358 197.344 29.3773L192.518 28.271C193.098 26.6703 193.939 25.3835 195.036 24.4104C196.15 23.4218 197.421 22.7 198.85 22.2449C200.294 21.7898 201.8 21.5622 203.37 21.5622C204.421 21.5622 205.535 21.6877 206.713 21.9388C207.889 22.1742 208.996 22.6214 210.031 23.2806C211.082 23.924 211.938 24.85 212.597 26.0582C213.256 27.2667 213.586 28.8282 213.586 30.7427V48.2091H208.572V44.6076H208.384C208.069 45.251 207.576 45.8944 206.901 46.5379C206.242 47.1813 205.393 47.7148 204.358 48.1386C203.322 48.5622 202.075 48.7741 200.616 48.7741ZM201.721 44.6781C203.15 44.6781 204.366 44.4035 205.371 43.8542C206.375 43.2894 207.143 42.5518 207.677 41.6416C208.21 40.7314 208.477 39.7662 208.477 38.7461V35.3329C208.289 35.5055 207.935 35.6704 207.418 35.8272C206.901 35.9842 206.312 36.1176 205.654 36.2273C204.993 36.3373 204.35 36.4393 203.722 36.5335C203.095 36.6119 202.57 36.6747 202.146 36.7218C201.157 36.8631 200.254 37.0827 199.438 37.3808C198.623 37.6633 197.963 38.0871 197.461 38.652C196.974 39.2012 196.732 39.931 196.732 40.8411C196.732 42.1124 197.202 43.0697 198.144 43.713C199.086 44.3564 200.278 44.6781 201.721 44.6781Z" fill="#D0D0D0"/>
</svg>
