<svg width="230" height="71" viewBox="0 0 230 71" fill="none" xmlns="http://www.w3.org/2000/svg">
<path d="M32.0309 7.69743C31.8215 7.88067 31.6857 8.03884 31.5159 8.14301C27.9511 10.3343 25.1928 13.3646 22.717 16.6699C20.8056 19.2393 19.1142 21.9653 17.6604 24.8186V24.8253C17.6073 24.9141 17.1926 25.6067 16.5647 26.9067C16.422 27.2038 16.2683 27.5329 16.1037 27.8944C15.7112 28.7574 15.2656 29.804 14.7911 31.0317C14.7101 31.2401 14.629 31.4542 14.5461 31.6741C14.0561 32.9819 13.5402 34.4768 13.0242 36.1588H13.002C12.885 36.5658 12.7708 36.9725 12.6596 37.3789C12.6509 37.4078 12.6432 37.4357 12.6355 37.4638C12.5197 37.8637 12.4233 38.2269 12.3462 38.5536C10.803 44.4822 9.94078 50.4619 11.3258 56.6731C3.65149 50.7724 -1.49008 38.4369 2.87509 26.0744C2.87509 26.0744 4.26682 22.5155 5.48977 20.6569C9.93692 13.1139 20.1255 6.35586 32.0309 7.69743Z" fill="#D0D0D0"/>
<path d="M12.6311 37.4685C12.5314 37.832 12.4348 38.1957 12.3416 38.5592C12.4226 38.2323 12.5191 37.8688 12.6311 37.4685Z" fill="#D0D0D0"/>
<path d="M34.1229 49.1074C33.6811 50.8744 32.8131 52.4455 31.6433 53.8497C30.1406 55.658 28.53 57.3537 26.6483 58.7763C25.3587 59.7512 23.9738 60.5441 22.4277 61.0437C19.4069 62.0188 16.8705 61.006 15.3688 58.1976C14.5847 56.7306 14.2018 55.1441 14.0185 53.5073C13.6443 50.1905 13.8517 46.8931 14.521 43.638C14.9165 41.709 15.4353 39.8061 15.9253 37.8974V37.8917C16.0095 37.5663 16.0921 37.2413 16.1731 36.9166C16.2262 36.7034 16.2821 36.4912 16.366 36.1642H16.3583C16.6332 35.2356 17.0662 33.9393 17.7366 32.2891C20.7264 33.5592 23.7076 34.8343 26.7061 36.0795C28.6264 36.8771 30.4126 37.8551 31.8129 39.428C34.3167 42.2375 35.0362 45.4907 34.1229 49.1074Z" fill="#D0D0D0"/>
<path d="M44.3655 22.0327C44.2845 23.8326 44.1158 25.6255 43.4869 27.3287C42.1212 31.0294 39.5693 33.4366 35.6748 34.3057C33.4401 34.8042 31.2546 34.4803 29.1665 33.6353C25.8979 32.3149 22.6621 30.9087 19.41 29.5364C19.3262 29.5007 19.2595 29.4244 19.0598 29.2702C19.086 29.2161 19.1129 29.1622 19.139 29.1091V29.1033C19.4736 28.4185 19.7968 27.7454 20.1276 27.078L20.2134 26.9071L20.2529 26.8291C20.3102 26.7152 20.368 26.6015 20.4265 26.4876C22.7065 22.0414 25.3994 17.8789 28.937 14.3142C30.2738 12.9639 31.7059 11.7304 33.36 10.7794C34.8212 9.93934 36.3431 9.29411 38.0802 9.3327C39.7323 9.37127 41.0421 10.085 42.0701 11.334C42.8339 12.2627 43.3114 13.3478 43.6528 14.4964C44.3897 16.9655 44.4785 19.4875 44.3655 22.0327Z" fill="#D0D0D0"/>
<path d="M26.12 63.0617C26.4093 62.8397 26.5464 62.7143 26.6987 62.618C30.4389 60.2821 33.3507 57.0993 35.9008 53.5596C36.5385 52.675 37.1493 51.7717 37.7331 50.8496C39.1934 48.5542 41.2583 47.0573 43.8276 46.2559C46.0941 45.5488 48.3866 45.5382 50.6426 46.3022C51.7864 46.6879 52.8859 47.2077 54.0066 47.6678C49.8565 56.9806 38.7063 64.379 26.12 63.0617Z" fill="#D0D0D0"/>
<path d="M46.9612 13.9769C51.3505 17.6998 54.2507 22.2028 55.8439 27.5557C57.7033 33.8063 57.0766 40.4912 55.2865 44.6585C50.578 43.2012 47.21 40.4284 46.1366 35.389C45.8531 34.0562 45.8868 32.7203 46.1366 31.3759C46.5889 28.9502 47.1068 26.5294 47.3961 24.0836C47.7694 20.9201 47.7309 17.7422 47.0056 14.6077C46.9738 14.4621 46.9833 14.3029 46.9612 13.9769Z" fill="#D0D0D0"/>
<path d="M12.6311 37.4685C12.5314 37.832 12.4348 38.1957 12.3416 38.5592C12.4226 38.2323 12.5191 37.8688 12.6311 37.4685Z" fill="#D0D0D0"/>
<path d="M19.1366 29.1045L19.0598 29.2686C19.0832 29.2123 19.1104 29.158 19.1366 29.1045Z" fill="#D0D0D0"/>
<path d="M103.425 14.4554V53.0553H97.9849L78.4259 24.766H78.0373V53.0553H72.2085V14.4554H77.597L97.2337 42.7965H97.5962V14.4554H103.425ZM120.123 53.6511C117.291 53.6511 114.838 53.038 112.766 51.8119C110.693 50.5856 109.096 48.8586 107.973 46.6307C106.868 44.3855 106.315 41.769 106.315 38.7811C106.315 35.8105 106.859 33.194 107.947 30.9316C109.053 28.6691 110.598 26.9075 112.584 25.6469C114.588 24.3688 116.937 23.7298 119.631 23.7298C121.272 23.7298 122.86 23.9974 124.397 24.5329C125.935 25.0682 127.316 25.9145 128.543 27.0716C129.769 28.2288 130.736 29.7313 131.444 31.5792C132.169 33.4273 132.532 35.6551 132.532 38.2629V40.2836H109.502V36.061H129.631L127.014 37.4599C127.014 35.6811 126.738 34.1094 126.185 32.745C125.632 31.3806 124.803 30.3186 123.698 29.5587C122.61 28.7814 121.254 28.3929 119.631 28.3929C118.007 28.3929 116.617 28.7814 115.46 29.5587C114.32 30.3358 113.448 31.3634 112.843 32.6414C112.239 33.9195 111.937 35.3184 111.937 36.8382V39.7138C111.937 41.6999 112.282 43.3837 112.973 44.7654C113.664 46.1472 114.622 47.2007 115.849 47.9259C117.092 48.6514 118.534 49.0139 120.175 49.0139C121.246 49.0139 122.213 48.8586 123.076 48.5477C123.957 48.2368 124.717 47.7705 125.356 47.1488C125.995 46.527 126.479 45.7584 126.807 44.843L132.143 45.8534C131.712 47.4077 130.952 48.7722 129.864 49.9466C128.776 51.1209 127.403 52.0363 125.745 52.6926C124.104 53.3316 122.23 53.6511 120.123 53.6511ZM138.168 24.0924L144.515 35.3875L150.966 24.0924H157.157L148.142 38.5998L157.209 53.0553H151.069L144.515 42.2267L138.065 53.0553H131.873L140.862 38.5998L131.977 24.0924H138.168ZM170.202 53.6511C167.491 53.6511 165.116 53.0295 163.078 51.7859C161.058 50.5424 159.486 48.7982 158.363 46.5528C157.258 44.3077 156.705 41.6999 156.705 38.7293C156.705 35.7242 157.258 33.0991 158.363 30.8539C159.486 28.5915 161.058 26.8385 163.078 25.5951C165.116 24.3515 167.491 23.7298 170.202 23.7298C172.931 23.7298 175.306 24.3515 177.327 25.5951C179.347 26.8385 180.919 28.5915 182.042 30.8539C183.165 33.0991 183.725 35.7242 183.725 38.7293C183.725 41.6999 183.165 44.3077 182.042 46.5528C180.919 48.7982 179.347 50.5424 177.327 51.7859C175.306 53.0295 172.931 53.6511 170.202 53.6511ZM170.202 48.9103C171.981 48.9103 173.449 48.4441 174.606 47.5114C175.764 46.5788 176.618 45.3439 177.171 43.8069C177.741 42.2525 178.026 40.5601 178.026 38.7293C178.026 36.864 177.741 35.1542 177.171 33.5999C176.618 32.0456 175.764 30.8021 174.606 29.8694C173.449 28.9369 171.981 28.4705 170.202 28.4705C168.441 28.4705 166.981 28.9369 165.824 29.8694C164.684 30.8021 163.829 32.0456 163.26 33.5999C162.69 35.1542 162.405 36.864 162.405 38.7293C162.405 40.5601 162.69 42.2525 163.26 43.8069C163.829 45.3439 164.684 46.5788 165.824 47.5114C166.981 48.4441 168.441 48.9103 170.202 48.9103ZM186.201 53.0553V24.0924H191.615V28.7296H191.926C192.462 27.1752 193.394 25.9491 194.724 25.0509C196.071 24.1357 197.591 23.678 199.283 23.678C199.628 23.678 200.035 23.6952 200.502 23.7298C200.984 23.747 201.373 23.773 201.667 23.8075V29.196C201.442 29.1268 201.036 29.0578 200.449 28.9887C199.879 28.9195 199.301 28.885 198.714 28.885C197.384 28.885 196.192 29.17 195.138 29.7399C194.101 30.2926 193.282 31.0612 192.678 32.0456C192.091 33.0128 191.797 34.1354 191.797 35.4133V53.0553H186.201ZM210.93 53.6771C209.098 53.6771 207.441 53.3402 205.956 52.6668C204.47 51.9758 203.296 50.9741 202.433 49.6617C201.57 48.3491 201.136 46.7514 201.136 44.869C201.136 43.2284 201.448 41.8898 202.07 40.8536C202.709 39.8001 203.563 38.9624 204.635 38.3408C205.705 37.7189 206.897 37.2528 208.209 36.9419C209.523 36.631 210.869 36.3892 212.252 36.2164C213.995 36.0265 215.403 35.8624 216.473 35.7242C217.545 35.5861 218.321 35.3702 218.806 35.0766C219.306 34.7657 219.556 34.2735 219.556 33.5999V33.4704C219.556 31.8296 219.09 30.5604 218.157 29.6623C217.242 28.7641 215.877 28.3151 214.064 28.3151C212.183 28.3151 210.688 28.7296 209.583 29.5587C208.495 30.3704 207.744 31.2943 207.328 32.3305L202.017 31.113C202.657 29.3514 203.581 27.9352 204.79 26.8643C206.016 25.7764 207.415 24.9819 208.987 24.4811C210.575 23.9803 212.234 23.7298 213.96 23.7298C215.118 23.7298 216.344 23.8679 217.638 24.1442C218.935 24.4033 220.152 24.8955 221.292 25.6209C222.449 26.329 223.39 27.348 224.117 28.6778C224.842 30.0077 225.204 31.7262 225.204 33.8332V53.0553H219.686V49.0917H219.479C219.133 49.7998 218.59 50.5079 217.847 51.2161C217.122 51.9242 216.188 52.5113 215.049 52.9777C213.909 53.4439 212.536 53.6771 210.93 53.6771ZM212.147 49.1694C213.719 49.1694 215.058 48.8671 216.164 48.2626C217.269 47.641 218.114 46.8293 218.701 45.8276C219.288 44.8259 219.582 43.7637 219.582 42.6411V38.8848C219.375 39.0747 218.986 39.2561 218.417 39.4287C217.847 39.6015 217.198 39.7483 216.473 39.8691C215.748 39.9901 215.041 40.1024 214.349 40.206C213.658 40.2923 213.079 40.3615 212.614 40.4133C211.525 40.5687 210.533 40.8105 209.634 41.1385C208.736 41.4494 208.011 41.9158 207.459 42.5374C206.923 43.1419 206.656 43.945 206.656 44.9467C206.656 46.3458 207.174 47.3993 208.209 48.1072C209.245 48.8153 210.559 49.1694 212.147 49.1694Z" fill="#D0D0D0"/>
</svg>
