<svg width="256" height="74" viewBox="0 0 256 74" fill="none" xmlns="http://www.w3.org/2000/svg">
<path d="M22.3036 64.9347L1.79126 30.2713H17.1361L29.6716 8.23633H55.1651L22.3036 64.9347Z" fill="#D0D0D0"/>
<path d="M68.2295 29.9935H42.3545L62.9104 65.2792L75.8214 43.0723L68.2295 29.9935Z" fill="#D0D0D0"/>
<path d="M105.093 55.7834C102.096 55.7834 99.493 55.3167 97.2853 54.3832C95.0956 53.4321 93.3816 52.077 92.1432 50.318C90.9047 48.5591 90.2138 46.4681 90.0701 44.045H96.1547C96.2802 45.499 96.7468 46.7103 97.5546 47.6796C98.3802 48.631 99.4482 49.3398 100.758 49.8065C102.069 50.2731 103.504 50.5065 105.066 50.5065C106.771 50.5065 108.297 50.2373 109.643 49.6988C110.989 49.1603 112.039 48.4065 112.793 47.4372C113.564 46.4501 113.95 45.3014 113.95 43.9911C113.95 42.8066 113.609 41.8375 112.927 41.0836C112.263 40.3298 111.357 39.7105 110.208 39.226C109.06 38.7233 107.767 38.2837 106.331 37.9067L101.62 36.6145C98.3892 35.7529 95.8406 34.4697 93.974 32.7644C92.1072 31.0414 91.1739 28.789 91.1739 26.007C91.1739 23.6916 91.7931 21.6725 93.0317 19.9494C94.2881 18.2264 95.9841 16.8892 98.1199 15.938C100.274 14.9687 102.688 14.4841 105.362 14.4841C108.09 14.4841 110.486 14.9687 112.55 15.938C114.632 16.8892 116.275 18.1994 117.477 19.8686C118.698 21.5199 119.335 23.4135 119.389 25.5494H113.52C113.304 23.7006 112.443 22.2648 110.935 21.2417C109.445 20.2187 107.543 19.7072 105.228 19.7072C103.612 19.7072 102.194 19.9674 100.974 20.4879C99.7713 20.9904 98.8378 21.6905 98.1738 22.5877C97.5278 23.4852 97.2047 24.5172 97.2047 25.6839C97.2047 26.9403 97.5904 27.9633 98.3624 28.753C99.1519 29.5428 100.103 30.171 101.216 30.6376C102.347 31.0864 103.433 31.4544 104.474 31.7415L108.378 32.7915C109.652 33.1146 110.962 33.5454 112.308 34.0837C113.654 34.6222 114.902 35.3311 116.05 36.2105C117.217 37.0721 118.15 38.149 118.85 39.4414C119.568 40.7156 119.927 42.2593 119.927 44.072C119.927 46.3155 119.344 48.3257 118.177 50.1026C117.011 51.8616 115.324 53.2526 113.116 54.2755C110.908 55.2807 108.234 55.7834 105.093 55.7834ZM126.404 66.3907C125.524 66.4087 124.726 66.3458 124.008 66.2023C123.308 66.0766 122.769 65.924 122.392 65.7447L123.819 60.9793L124.223 61.087C125.713 61.464 126.969 61.437 127.992 61.0063C129.033 60.5936 129.904 59.4358 130.604 57.5332L131.33 55.5409L120.346 25.0377H126.619L134.211 48.4065H134.534L142.153 25.0377H148.426L136.042 59.1217C135.468 60.7011 134.741 62.0293 133.861 63.1062C132.982 64.201 131.923 65.0178 130.684 65.5561C129.464 66.1126 128.037 66.3907 126.404 66.3907ZM155.818 37.2875V55.1372H150.003V25.0377H155.657V29.9916H156.06C156.743 28.3582 157.811 27.066 159.264 26.1147C160.718 25.1454 162.585 24.6609 164.864 24.6609C166.91 24.6609 168.696 25.0915 170.222 25.9531C171.765 26.7967 172.959 28.0621 173.802 29.7492C174.664 31.4364 175.095 33.5274 175.095 36.0221V55.1372H169.279V36.7222C169.279 34.5503 168.705 32.8453 167.556 31.6069C166.408 30.3505 164.846 29.7223 162.872 29.7223C161.526 29.7223 160.314 30.0274 159.237 30.6376C158.178 31.23 157.344 32.0826 156.734 33.1953C156.123 34.3081 155.818 35.6722 155.818 37.2875ZM191.667 55.7564C188.777 55.7564 186.283 55.0923 184.183 53.7641C182.083 52.436 180.467 50.6052 179.337 48.2718C178.206 45.9386 177.641 43.2642 177.641 40.249C177.641 37.1798 178.215 34.4787 179.364 32.1453C180.53 29.794 182.155 27.9633 184.236 26.6532C186.337 25.3249 188.796 24.6609 191.613 24.6609C193.911 24.6609 195.947 25.0827 197.724 25.9261C199.52 26.7519 200.965 27.9274 202.06 29.4531C203.172 30.9787 203.828 32.7556 204.025 34.7838H198.318C198.119 33.8325 197.733 32.962 197.16 32.1723C196.603 31.3825 195.868 30.7543 194.951 30.2877C194.036 29.821 192.951 29.5876 191.694 29.5876C190.06 29.5876 188.634 30.0184 187.414 30.88C186.212 31.7234 185.269 32.935 184.587 34.5145C183.905 36.094 183.564 37.9606 183.564 40.1144C183.564 42.2861 183.896 44.1797 184.559 45.7951C185.223 47.4104 186.166 48.6578 187.386 49.5372C188.625 50.3988 190.06 50.8295 191.694 50.8295C193.381 50.8295 194.817 50.3628 196.002 49.4295C197.204 48.4962 197.976 47.222 198.318 45.6067H204.025C203.828 47.5629 203.199 49.304 202.141 50.8295C201.08 52.3551 199.663 53.5577 197.886 54.4371C196.109 55.3167 194.036 55.7564 191.667 55.7564ZM219.467 55.7564C216.522 55.7564 213.973 55.1191 211.821 53.8449C209.667 52.5705 208.006 50.7758 206.84 48.4604C205.692 46.1272 205.116 43.408 205.116 40.3028C205.116 37.2157 205.682 34.4965 206.813 32.1453C207.961 29.794 209.568 27.9633 211.632 26.6532C213.714 25.3249 216.155 24.6609 218.954 24.6609C220.66 24.6609 222.312 24.939 223.909 25.4955C225.506 26.0518 226.942 26.9313 228.215 28.1338C229.491 29.3364 230.496 30.8979 231.231 32.8183C231.985 34.7389 232.362 37.0541 232.362 39.7643V41.8643H208.428V37.4759H229.347L226.627 38.9297C226.627 37.0811 226.341 35.4478 225.765 34.0298C225.192 32.6119 224.33 31.5082 223.181 30.7185C222.051 29.9107 220.641 29.5069 218.954 29.5069C217.267 29.5069 215.822 29.9107 214.62 30.7185C213.435 31.5261 212.529 32.5941 211.902 33.9221C211.273 35.2504 210.959 36.7042 210.959 38.2837V41.2721C210.959 43.3361 211.317 45.086 212.036 46.5219C212.753 47.9579 213.749 49.0528 215.025 49.8065C216.317 50.5604 217.814 50.9372 219.52 50.9372C220.634 50.9372 221.637 50.7758 222.536 50.4527C223.451 50.1296 224.24 49.6449 224.905 48.9989C225.569 48.3527 226.07 47.5539 226.412 46.6026L231.959 47.6526C231.509 49.268 230.72 50.6859 229.59 51.9065C228.458 53.1269 227.032 54.0782 225.308 54.7602C223.604 55.4242 221.656 55.7564 219.467 55.7564ZM240.616 15.0226V55.1372H234.8V15.0226H240.616ZM250.377 15.0226V55.1372H244.562V15.0226H250.377Z" fill="#D0D0D0"/>
</svg>
