<svg width="260" height="84" viewBox="0 0 260 84" fill="none" xmlns="http://www.w3.org/2000/svg">
<g clip-path="url(#clip0_56_271)">
<path d="M47.4426 59.9544C47.4012 59.9148 47.3595 59.8753 47.3181 59.8355C46.8875 59.4186 46.4587 59.0029 46.0311 58.5887C44.3234 56.9344 42.636 55.2995 40.9446 53.6684C40.2083 52.9587 40.1928 52.7245 40.9214 51.9827C41.9026 50.9841 42.8428 49.9562 43.5808 48.7542C44.4584 47.3247 44.95 45.7501 45.3854 44.1508C45.5658 43.4884 45.8776 43.3023 46.529 43.4969C49.8776 44.498 53.2449 45.4342 56.6119 46.3705C57.8669 46.7194 59.1219 47.0685 60.3758 47.4207C60.5554 47.4712 60.7348 47.5216 60.9141 47.5721C61.4941 47.7353 62.0743 47.8988 62.6553 48.0587C63.8485 48.3873 64.4178 49.1054 64.3879 50.3418C64.3168 53.304 64.2314 56.2661 64.1336 59.2275C64.1104 59.9307 63.7701 60.5002 63.1719 60.872C60.6111 62.4635 58.0484 64.0527 55.4716 65.6185C54.5928 66.1527 53.5999 65.9856 52.8386 65.2418C51.6722 64.1015 50.5082 62.9587 49.3443 61.8157C48.7999 61.2809 48.2553 60.7462 47.7105 60.2118C47.622 60.125 47.5324 60.0396 47.4426 59.9544Z" fill="#D0D0D0"/>
<path d="M42.0621 71.3295C42.3916 72.6586 42.0209 73.4208 40.8046 74.0843C40.1359 74.4471 39.4705 74.8064 38.8077 75.1645C37.0418 76.1188 35.2949 77.0625 33.5584 78.0249C32.6324 78.5379 31.7747 78.5412 30.8437 78.0255C29.3026 77.1718 27.7515 76.336 26.2001 75.5003C25.2794 75.0042 24.3587 74.5082 23.4399 74.0084C22.4044 73.4449 22.0172 72.6272 22.2969 71.4844C22.5823 70.3171 22.8846 69.154 23.187 67.9907C23.3919 67.2023 23.5968 66.4136 23.7967 65.6235C24.3311 63.5102 24.8589 61.3954 25.3868 59.2804C25.532 58.6983 25.6775 58.116 25.823 57.534C25.9025 57.2154 25.9802 56.8962 26.0576 56.577C26.1846 56.055 26.3115 55.533 26.4473 55.0131C26.5951 54.4474 26.8854 54.2825 27.4574 54.4062C27.7929 54.4786 28.1257 54.5617 28.4587 54.645C29.054 54.7936 29.649 54.9422 30.2583 55.0301C31.9827 55.2785 33.6898 55.1933 35.3824 54.7854C35.5225 54.7515 35.6623 54.7174 35.8023 54.6833C36.1899 54.5885 36.5778 54.4936 36.9677 54.4085C37.5041 54.291 37.7865 54.4547 37.9192 54.9807C38.1237 55.7913 38.3231 56.6032 38.5226 57.4151C38.6932 58.1098 38.8638 58.8044 39.0377 59.4985C39.5369 61.4915 40.0392 63.4836 40.5493 65.4738C40.7439 66.234 40.943 66.9932 41.142 67.7525C41.4541 68.9435 41.7662 70.1346 42.0621 71.3295Z" fill="#D0D0D0"/>
<path d="M17.8845 43.4991C18.1779 43.415 18.4694 43.3648 18.73 43.5906C18.9861 43.9625 19.0807 44.3548 19.1732 44.7378C19.1929 44.8194 19.2125 44.9006 19.2335 44.9812C19.9228 47.619 21.2838 49.8538 23.2348 51.7429C23.3769 51.8806 23.511 52.0269 23.645 52.173C23.6686 52.1986 23.6921 52.2243 23.7157 52.2501C24.1008 52.6685 24.0921 53.0437 23.6896 53.4326C23.1044 53.9977 22.5185 54.5624 21.9329 55.1271C20.6549 56.3593 19.377 57.5915 18.1043 58.8291C16.5004 60.3888 14.9018 61.9539 13.3033 63.5191C12.7746 64.0367 12.246 64.5543 11.7171 65.0717C10.7092 66.0579 9.80671 66.1756 8.61137 65.4438C7.18332 64.5696 5.7578 63.6914 4.33229 62.8129C3.35581 62.2112 2.37935 61.6096 1.40207 61.0092C0.617048 60.5269 0.260675 59.835 0.240823 58.9115C0.205656 57.2756 0.158004 55.6401 0.110352 54.0046C0.0754757 52.8076 0.040599 51.6104 0.010617 50.4134C-0.0220142 49.1105 0.540606 48.3997 1.79457 48.0485C5.91654 46.894 10.0364 45.7324 14.1561 44.5699C14.9588 44.3435 15.76 44.112 16.5613 43.8805C17.0023 43.7532 17.4433 43.6258 17.8845 43.4991Z" fill="#D0D0D0"/>
<path d="M3.02228 21.7624C3.27458 21.6075 3.52687 21.4529 3.77893 21.2978C4.25558 21.0041 4.729 20.7141 5.19961 20.4258C6.37575 19.7052 7.53436 18.9953 8.68203 18.2682C9.65422 17.6522 10.8217 17.7874 11.6203 18.5762C14.0739 21.0002 16.5453 23.4061 19.0168 25.812C19.5137 26.2957 20.0106 26.7794 20.5074 27.2633C21.1672 27.9059 21.8323 28.5428 22.4977 29.1795C22.8705 29.5363 23.2434 29.8932 23.6152 30.2511C24.1225 30.7394 24.1292 31.0998 23.6229 31.6032C22.351 32.8676 21.1709 34.1983 20.3512 35.8173C19.7919 36.9216 19.4292 38.0926 19.0924 39.2745C18.7723 40.3979 18.6633 40.4659 17.5493 40.1511C16.4165 39.8311 15.2838 39.5111 14.1511 39.1908C11.5648 38.4597 8.97851 37.7286 6.39157 36.9998C5.26301 36.6819 4.13307 36.3688 3.00313 36.0559C2.56391 35.9341 2.12467 35.8125 1.68553 35.6905C0.568446 35.3803 -0.0288879 34.6052 0.00107484 33.4375C0.0767627 30.4876 0.160863 27.5379 0.26014 24.5888C0.285114 23.8469 0.624585 23.246 1.26669 22.8454C1.85005 22.4814 2.43617 22.1218 3.02228 21.7624Z" fill="#D0D0D0"/>
<path d="M44.6117 37.0964C44.3421 36.3795 43.9999 35.6985 43.6079 35.0417C42.8464 33.757 41.8684 32.7239 40.8652 31.7108C40.2151 31.0547 40.2344 30.7744 40.8911 30.1425C42.9611 28.1504 45.0259 26.1526 47.0857 24.1498C48.093 23.1705 49.0975 22.1878 50.1017 21.2049C51.0398 20.2871 51.9779 19.3692 52.9185 18.4539C53.6423 17.7496 54.6781 17.6524 55.5997 18.2114C56.5964 18.816 57.5876 19.4296 58.5791 20.0431C59.018 20.3149 59.4571 20.5866 59.8966 20.8575C60.1972 21.0429 60.4973 21.2294 60.7973 21.4159C61.5194 21.8646 62.2417 22.3136 62.973 22.747C63.7758 23.2228 64.1262 23.9133 64.1471 24.8319C64.1787 26.2041 64.2181 27.5763 64.2574 28.9483C64.2991 30.3956 64.3405 31.8429 64.3728 33.2904C64.4046 34.7062 63.8667 35.3514 62.4974 35.7271C60.7357 36.2104 58.9778 36.7075 57.2199 37.2048C56.7523 37.3371 56.2845 37.4694 55.8169 37.6014C53.0074 38.3945 50.1988 39.1903 47.3904 39.9869C47.2391 40.0298 47.089 40.0771 46.9389 40.1244C46.7684 40.178 46.5978 40.2317 46.4255 40.279C45.8861 40.4272 45.5854 40.259 45.4269 39.7225C45.3681 39.5226 45.3104 39.3225 45.2528 39.1222C45.0571 38.4414 44.8612 37.7605 44.6117 37.0964Z" fill="#D0D0D0"/>
<path d="M40.4098 18.8514C40.1924 19.6981 39.9749 20.5448 39.7572 21.3915C39.1731 23.7472 38.6025 26.0405 38.0313 28.3336L38.0284 28.3458C37.9886 28.5048 37.9491 28.6641 37.9024 28.8213C37.7638 29.2891 37.4643 29.462 36.9936 29.3571C36.6834 29.288 36.3749 29.2125 36.0664 29.1369C35.4965 28.9975 34.9267 28.8579 34.3466 28.7587C32.3707 28.4209 30.4309 28.5829 28.5076 29.0978C28.1206 29.2014 27.7303 29.2947 27.3385 29.3795C26.914 29.4712 26.6009 29.2778 26.4944 28.8504C26.2269 27.7777 25.9615 26.7048 25.6959 25.6317C25.2666 23.8966 24.8371 22.1613 24.3997 20.4282C24.0673 19.1117 23.7247 17.7978 23.3818 16.4839C23.1704 15.6736 22.959 14.8634 22.7502 14.0525C22.5859 13.4146 22.4228 12.7758 22.2847 12.132C22.0716 11.1385 22.4712 10.2793 23.3766 9.78863C25.9814 8.37714 28.5884 6.97023 31.1995 5.57048C31.8347 5.22994 32.5198 5.21939 33.142 5.54944C35.8163 6.96815 38.479 8.40918 41.1342 9.86341C42.052 10.3661 42.3492 11.309 42.0434 12.4972C41.4984 14.6152 40.9542 16.7333 40.4098 18.8514Z" fill="#D0D0D0"/>
<path d="M88.1889 17.108L100.054 53.041H100.545L112.41 17.108H121.485L105.389 62.7907H95.21L79.083 17.108H88.1889ZM123.571 62.7907V28.5132H131.635V62.7907H123.571ZM127.618 23.6997C126.331 23.6997 125.227 23.2706 124.307 22.4121C123.387 21.5537 122.927 20.5214 122.927 19.3155C122.927 18.0891 123.387 17.0467 124.307 16.1882C125.227 15.3297 126.331 14.9005 127.618 14.9005C128.885 14.9005 129.979 15.3297 130.899 16.1882C131.819 17.0467 132.278 18.0789 132.278 19.2848C132.278 20.5112 131.819 21.5537 130.899 22.4121C129.979 23.2706 128.885 23.6997 127.618 23.6997ZM136.357 62.7907V28.5132H144.176V34.2774H144.544C145.157 32.2742 146.23 30.7413 147.763 29.6784C149.296 28.5951 151.043 28.0534 153.005 28.0534C153.435 28.0534 153.925 28.0739 154.477 28.1147C155.049 28.1555 155.52 28.2068 155.888 28.2681V35.6877C155.54 35.5651 154.998 35.4629 154.263 35.3811C153.527 35.2992 152.821 35.2584 152.147 35.2584C150.655 35.2584 149.326 35.5753 148.161 36.2089C146.996 36.8424 146.077 37.7112 145.402 38.8149C144.748 39.9188 144.421 41.2064 144.421 42.678V62.7907H136.357ZM171.433 63.4653C167.999 63.4653 165.036 62.7499 162.542 61.3191C160.048 59.8678 158.127 57.8239 156.778 55.1871C155.449 52.5504 154.785 49.4435 154.785 45.8667C154.785 42.3305 155.449 39.2339 156.778 36.5768C158.106 33.8992 159.977 31.8144 162.388 30.3222C164.8 28.8301 167.642 28.0842 170.912 28.0842C173.017 28.0842 175.01 28.4214 176.891 29.0959C178.792 29.7703 180.467 30.8128 181.919 32.2231C183.39 33.6334 184.545 35.4321 185.383 37.6191C186.221 39.7858 186.64 42.3714 186.64 45.3761V47.8902H158.556V42.4634H182.624L178.853 44.0577C178.853 42.116 178.556 40.4297 177.964 38.9989C177.371 37.5478 176.492 36.4134 175.327 35.5956C174.162 34.7781 172.711 34.3693 170.973 34.3693C169.236 34.3693 167.754 34.7781 166.528 35.5956C165.301 36.4134 164.371 37.517 163.738 38.907C163.104 40.2764 162.787 41.8094 162.787 43.5058V47.277C162.787 49.3618 163.145 51.1503 163.86 52.6424C164.596 54.1141 165.618 55.2382 166.926 56.0149C168.255 56.7917 169.798 57.1799 171.556 57.1799C172.7 57.1799 173.743 57.0164 174.683 56.6895C175.644 56.3624 176.461 55.8718 177.136 55.2177C177.831 54.5433 178.362 53.7155 178.73 52.7343L186.272 53.6234C185.782 55.6062 184.872 57.3436 183.544 58.8357C182.236 60.3073 180.549 61.452 178.485 62.2695C176.441 63.0665 174.09 63.4653 171.433 63.4653ZM204.7 63.4653C201.348 63.4653 198.445 62.7294 195.993 61.2577C193.54 59.7861 191.639 57.7216 190.29 55.0645C188.961 52.4074 188.297 49.321 188.297 45.8054C188.297 42.2692 188.961 39.1726 190.29 36.5155C191.639 33.8379 193.54 31.7633 195.993 30.2917C198.445 28.8199 201.348 28.0842 204.7 28.0842C208.052 28.0842 210.954 28.8199 213.407 30.2917C215.86 31.7633 217.76 33.8379 219.11 36.5155C220.458 39.1726 221.134 42.2692 221.134 45.8054C221.134 49.321 220.458 52.4074 219.11 55.0645C217.76 57.7216 215.86 59.7861 213.407 61.2577C210.954 62.7294 208.052 63.4653 204.7 63.4653ZM204.7 56.9654C206.56 56.9654 208.093 56.4748 209.299 55.4938C210.506 54.4923 211.404 53.1431 211.996 51.4467C212.609 49.7501 212.917 47.8697 212.917 45.8054C212.917 43.7 212.609 41.7991 211.996 40.1027C211.404 38.4061 210.506 37.0674 209.299 36.0862C208.093 35.0847 206.56 34.5838 204.7 34.5838C202.881 34.5838 201.358 35.0847 200.132 36.0862C198.905 37.0674 197.986 38.4061 197.372 40.1027C196.78 41.7991 196.483 43.7 196.483 45.8054C196.483 47.8697 196.78 49.7501 197.372 51.4467C197.986 53.1431 198.905 54.4923 200.132 55.4938C201.358 56.4748 202.881 56.9654 204.7 56.9654ZM232.386 42.7393V62.7907H224.324V28.5132H232.233V34.3693H232.631C233.41 32.4479 234.626 30.9252 236.281 29.8011C237.956 28.6564 240.082 28.0842 242.659 28.0842C245.028 28.0842 247.094 28.5848 248.852 29.5863C250.608 30.5881 251.968 32.0597 252.929 34.0014C253.909 35.9228 254.4 38.2529 254.4 40.9918V62.7907H246.336V42.2487C246.336 39.9596 245.744 38.1711 244.559 36.8835C243.372 35.5753 241.738 34.9212 239.653 34.9212C238.242 34.9212 236.987 35.2279 235.881 35.8409C234.799 36.4542 233.939 37.3433 233.307 38.5083C232.694 39.6529 232.386 41.0632 232.386 42.7393Z" fill="#D0D0D0"/>
</g>
<defs>
<clipPath id="clip0_56_271">
<rect width="259.535" height="83.7209" fill="white"/>
</clipPath>
</defs>
</svg>
